<mxfile host="app.diagrams.net" modified="2024-03-27T20:57:41.842Z" agent="Mozilla/5.0 (Windows NT 10.0; Win64; x64) AppleWebKit/537.36 (KHTML, like Gecko) Chrome/120.0.0.0 YaBrowser/24.1.0.0 Safari/537.36" etag="S91ZckDKsjdNWxjws3z8" version="24.0.7" type="device">
  <diagram id="R2lEEEUBdFMjLlhIrx00" name="Page-1">
    <mxGraphModel dx="1216" dy="547" grid="1" gridSize="10" guides="1" tooltips="1" connect="1" arrows="1" fold="1" page="1" pageScale="1" pageWidth="850" pageHeight="1100" math="0" shadow="0" extFonts="Permanent Marker^https://fonts.googleapis.com/css?family=Permanent+Marker">
      <root>
        <mxCell id="0" />
        <mxCell id="1" parent="0" />
        <mxCell id="ShYq5PAr-Gi1pNYusNZF-1" value="Flowers" style="rounded=1;arcSize=10;whiteSpace=wrap;html=1;align=center;" parent="1" vertex="1">
          <mxGeometry x="220" y="200" width="100" height="40" as="geometry" />
        </mxCell>
        <mxCell id="CwRKVIBliyjedmU_aCfj-3" value="Providers" style="rounded=1;arcSize=10;whiteSpace=wrap;html=1;align=center;" parent="1" vertex="1">
          <mxGeometry x="520" y="440" width="100" height="40" as="geometry" />
        </mxCell>
        <mxCell id="CwRKVIBliyjedmU_aCfj-4" value="&amp;nbsp;Shops" style="rounded=1;arcSize=10;whiteSpace=wrap;html=1;align=center;" parent="1" vertex="1">
          <mxGeometry x="375" y="320" width="100" height="40" as="geometry" />
        </mxCell>
        <mxCell id="CwRKVIBliyjedmU_aCfj-5" value="Purchases" style="rounded=1;arcSize=10;whiteSpace=wrap;html=1;align=center;" parent="1" vertex="1">
          <mxGeometry x="520" y="200" width="100" height="40" as="geometry" />
        </mxCell>
        <mxCell id="CwRKVIBliyjedmU_aCfj-8" value="" style="edgeStyle=orthogonalEdgeStyle;fontSize=12;html=1;endArrow=ERzeroToMany;startArrow=ERmandOne;rounded=0;exitX=1;exitY=0.5;exitDx=0;exitDy=0;entryX=0.5;entryY=1;entryDx=0;entryDy=0;" parent="1" source="CwRKVIBliyjedmU_aCfj-4" target="CwRKVIBliyjedmU_aCfj-5" edge="1">
          <mxGeometry width="100" height="100" relative="1" as="geometry">
            <mxPoint x="350" y="480" as="sourcePoint" />
            <mxPoint x="570" y="250" as="targetPoint" />
            <Array as="points" />
          </mxGeometry>
        </mxCell>
        <mxCell id="CwRKVIBliyjedmU_aCfj-10" value="" style="edgeStyle=orthogonalEdgeStyle;fontSize=12;html=1;endArrow=ERoneToMany;startArrow=ERoneToMany;rounded=0;exitX=0.5;exitY=1;exitDx=0;exitDy=0;entryX=0;entryY=0.5;entryDx=0;entryDy=0;" parent="1" source="ShYq5PAr-Gi1pNYusNZF-1" target="CwRKVIBliyjedmU_aCfj-4" edge="1">
          <mxGeometry width="100" height="100" relative="1" as="geometry">
            <mxPoint x="350" y="160" as="sourcePoint" />
            <mxPoint x="450" y="60" as="targetPoint" />
          </mxGeometry>
        </mxCell>
        <mxCell id="CwRKVIBliyjedmU_aCfj-16" value="" style="edgeStyle=orthogonalEdgeStyle;fontSize=12;html=1;endArrow=ERoneToMany;startArrow=ERzeroToMany;rounded=0;entryX=0;entryY=0.5;entryDx=0;entryDy=0;exitX=0;exitY=0.5;exitDx=0;exitDy=0;" parent="1" source="ShYq5PAr-Gi1pNYusNZF-1" target="0ahIiJ5ZCXwcgEOLCcY9-1" edge="1">
          <mxGeometry width="100" height="100" relative="1" as="geometry">
            <mxPoint x="80" y="390" as="sourcePoint" />
            <mxPoint x="180" y="290" as="targetPoint" />
            <Array as="points">
              <mxPoint x="180" y="220" />
              <mxPoint x="180" y="460" />
            </Array>
          </mxGeometry>
        </mxCell>
        <mxCell id="0ahIiJ5ZCXwcgEOLCcY9-1" value="Delivery" style="rounded=1;arcSize=10;whiteSpace=wrap;html=1;align=center;" vertex="1" parent="1">
          <mxGeometry x="220" y="440" width="100" height="40" as="geometry" />
        </mxCell>
        <mxCell id="0ahIiJ5ZCXwcgEOLCcY9-4" value="" style="edgeStyle=entityRelationEdgeStyle;fontSize=12;html=1;endArrow=ERoneToMany;startArrow=ERmandOne;rounded=0;entryX=1;entryY=0.5;entryDx=0;entryDy=0;exitX=0;exitY=0.5;exitDx=0;exitDy=0;" edge="1" parent="1" source="CwRKVIBliyjedmU_aCfj-3" target="0ahIiJ5ZCXwcgEOLCcY9-1">
          <mxGeometry width="100" height="100" relative="1" as="geometry">
            <mxPoint x="330" y="530" as="sourcePoint" />
            <mxPoint x="530" y="530" as="targetPoint" />
            <Array as="points">
              <mxPoint x="-60" y="620" />
              <mxPoint x="-60" y="610" />
            </Array>
          </mxGeometry>
        </mxCell>
        <mxCell id="0ahIiJ5ZCXwcgEOLCcY9-5" value="" style="edgeStyle=orthogonalEdgeStyle;fontSize=12;html=1;endArrow=ERoneToMany;startArrow=ERmandOne;rounded=0;exitX=0.5;exitY=1;exitDx=0;exitDy=0;entryX=0.5;entryY=0;entryDx=0;entryDy=0;" edge="1" parent="1" source="CwRKVIBliyjedmU_aCfj-4" target="0ahIiJ5ZCXwcgEOLCcY9-1">
          <mxGeometry width="100" height="100" relative="1" as="geometry">
            <mxPoint x="710" y="380" as="sourcePoint" />
            <mxPoint x="810" y="280" as="targetPoint" />
          </mxGeometry>
        </mxCell>
        <mxCell id="0ahIiJ5ZCXwcgEOLCcY9-7" value="" style="edgeStyle=entityRelationEdgeStyle;fontSize=12;html=1;endArrow=ERzeroToMany;endFill=1;startArrow=ERzeroToMany;rounded=0;exitX=1;exitY=0.5;exitDx=0;exitDy=0;entryX=0;entryY=0.5;entryDx=0;entryDy=0;" edge="1" parent="1" source="ShYq5PAr-Gi1pNYusNZF-1" target="CwRKVIBliyjedmU_aCfj-5">
          <mxGeometry width="100" height="100" relative="1" as="geometry">
            <mxPoint x="340" y="230" as="sourcePoint" />
            <mxPoint x="590" y="250" as="targetPoint" />
            <Array as="points">
              <mxPoint x="430" y="230" />
            </Array>
          </mxGeometry>
        </mxCell>
      </root>
    </mxGraphModel>
  </diagram>
</mxfile>
